<svg width="16" height="16" viewBox="0 0 16 16" fill="none" xmlns="http://www.w3.org/2000/svg">
<path d="M5.33333 3.83594C5.05999 3.83594 4.83333 3.60927 4.83333 3.33594V1.33594C4.83333 1.0626 5.05999 0.835938 5.33333 0.835938C5.60666 0.835938 5.83333 1.0626 5.83333 1.33594V3.33594C5.83333 3.60927 5.60666 3.83594 5.33333 3.83594Z" fill="#434343"/>
<path d="M10.6667 3.83594C10.3933 3.83594 10.1667 3.60927 10.1667 3.33594V1.33594C10.1667 1.0626 10.3933 0.835938 10.6667 0.835938C10.94 0.835938 11.1667 1.0626 11.1667 1.33594V3.33594C11.1667 3.60927 10.94 3.83594 10.6667 3.83594Z" fill="#434343"/>
<path d="M5.66667 9.66557C5.58 9.66557 5.49333 9.64558 5.41333 9.61225C5.32667 9.57891 5.26 9.53223 5.19333 9.47223C5.07333 9.34557 5 9.17891 5 8.99891C5 8.91224 5.02 8.82557 5.05333 8.74557C5.08667 8.66557 5.13333 8.59224 5.19333 8.52558C5.26 8.46558 5.32667 8.4189 5.41333 8.38556C5.65333 8.28556 5.95333 8.33891 6.14 8.52558C6.26 8.65224 6.33333 8.82557 6.33333 8.99891C6.33333 9.03891 6.32667 9.08558 6.32 9.13225C6.31333 9.17225 6.3 9.21224 6.28 9.25224C6.26667 9.29224 6.24667 9.33224 6.22 9.37224C6.2 9.40557 6.16667 9.4389 6.14 9.47223C6.01333 9.59223 5.84 9.66557 5.66667 9.66557Z" fill="#434343"/>
<path d="M7.99999 9.66854C7.91333 9.66854 7.82666 9.64854 7.74666 9.61521C7.65999 9.58188 7.59333 9.5352 7.52666 9.4752C7.40666 9.34853 7.33333 9.18187 7.33333 9.00187C7.33333 8.9152 7.35333 8.82853 7.38666 8.74853C7.42 8.66853 7.46666 8.59521 7.52666 8.52854C7.59333 8.46854 7.65999 8.42186 7.74666 8.38853C7.98666 8.28186 8.28666 8.34187 8.47333 8.52854C8.59333 8.65521 8.66666 8.82854 8.66666 9.00187C8.66666 9.04187 8.65999 9.08854 8.65333 9.13521C8.64666 9.17521 8.63333 9.21521 8.61333 9.25521C8.59999 9.29521 8.58 9.3352 8.55333 9.3752C8.53333 9.40853 8.49999 9.44186 8.47333 9.4752C8.34666 9.5952 8.17333 9.66854 7.99999 9.66854Z" fill="#434343"/>
<path d="M10.3333 9.66854C10.2467 9.66854 10.16 9.64854 10.08 9.61521C9.99334 9.58188 9.92667 9.5352 9.86001 9.4752C9.83334 9.44186 9.80667 9.40853 9.78 9.3752C9.75334 9.3352 9.73334 9.29521 9.72001 9.25521C9.70001 9.21521 9.68667 9.17521 9.68001 9.13521C9.67334 9.08854 9.66667 9.04187 9.66667 9.00187C9.66667 8.82854 9.74001 8.65521 9.86001 8.52854C9.92667 8.46854 9.99334 8.42186 10.08 8.38853C10.3267 8.28186 10.62 8.34187 10.8067 8.52854C10.9267 8.65521 11 8.82854 11 9.00187C11 9.04187 10.9933 9.08854 10.9867 9.13521C10.98 9.17521 10.9667 9.21521 10.9467 9.25521C10.9333 9.29521 10.9133 9.3352 10.8867 9.3752C10.8667 9.40853 10.8333 9.44186 10.8067 9.4752C10.68 9.5952 10.5067 9.66854 10.3333 9.66854Z" fill="#434343"/>
<path d="M5.66667 11.9969C5.58 11.9969 5.49333 11.9769 5.41333 11.9435C5.33333 11.9102 5.26 11.8635 5.19333 11.8035C5.07333 11.6769 5 11.5035 5 11.3302C5 11.2435 5.02 11.1569 5.05333 11.0769C5.08667 10.9902 5.13333 10.9169 5.19333 10.8569C5.44 10.6102 5.89333 10.6102 6.14 10.8569C6.26 10.9835 6.33333 11.1569 6.33333 11.3302C6.33333 11.5035 6.26 11.6769 6.14 11.8035C6.01333 11.9235 5.84 11.9969 5.66667 11.9969Z" fill="#434343"/>
<path d="M7.99999 11.9969C7.82666 11.9969 7.65333 11.9235 7.52666 11.8035C7.40666 11.6769 7.33333 11.5035 7.33333 11.3302C7.33333 11.2435 7.35333 11.1569 7.38666 11.0769C7.42 10.9902 7.46666 10.9169 7.52666 10.8569C7.77333 10.6102 8.22666 10.6102 8.47333 10.8569C8.53333 10.9169 8.57999 10.9902 8.61333 11.0769C8.64666 11.1569 8.66666 11.2435 8.66666 11.3302C8.66666 11.5035 8.59333 11.6769 8.47333 11.8035C8.34666 11.9235 8.17333 11.9969 7.99999 11.9969Z" fill="#434343"/>
<path d="M10.3333 11.998C10.16 11.998 9.98667 11.9246 9.86001 11.8046C9.80001 11.7446 9.75334 11.6713 9.72001 11.5847C9.68667 11.5047 9.66667 11.418 9.66667 11.3313C9.66667 11.2447 9.68667 11.158 9.72001 11.078C9.75334 10.9913 9.80001 10.918 9.86001 10.858C10.0133 10.7047 10.2467 10.6313 10.46 10.678C10.5067 10.6846 10.5467 10.698 10.5867 10.718C10.6267 10.7313 10.6667 10.7513 10.7067 10.778C10.74 10.798 10.7733 10.8313 10.8067 10.858C10.9267 10.9847 11 11.158 11 11.3313C11 11.5047 10.9267 11.678 10.8067 11.8046C10.68 11.9246 10.5067 11.998 10.3333 11.998Z" fill="#434343"/>
<path d="M13.6667 6.5625H2.33333C2.05999 6.5625 1.83333 6.33583 1.83333 6.0625C1.83333 5.78917 2.05999 5.5625 2.33333 5.5625H13.6667C13.94 5.5625 14.1667 5.78917 14.1667 6.0625C14.1667 6.33583 13.94 6.5625 13.6667 6.5625Z" fill="#434343"/>
<path d="M10.6667 15.1693H5.33333C2.9 15.1693 1.5 13.7693 1.5 11.3359V5.66927C1.5 3.23594 2.9 1.83594 5.33333 1.83594H10.6667C13.1 1.83594 14.5 3.23594 14.5 5.66927V11.3359C14.5 13.7693 13.1 15.1693 10.6667 15.1693ZM5.33333 2.83594C3.42667 2.83594 2.5 3.7626 2.5 5.66927V11.3359C2.5 13.2426 3.42667 14.1693 5.33333 14.1693H10.6667C12.5733 14.1693 13.5 13.2426 13.5 11.3359V5.66927C13.5 3.7626 12.5733 2.83594 10.6667 2.83594H5.33333Z" fill="#434343"/>
</svg>
