<svg width="25" height="24" viewBox="0 0 25 24" fill="none" xmlns="http://www.w3.org/2000/svg">
<path d="M12.5009 14.1714C10.3709 14.1714 8.63086 12.4414 8.63086 10.3014C8.63086 8.16141 10.3709 6.44141 12.5009 6.44141C14.6309 6.44141 16.3709 8.17141 16.3709 10.3114C16.3709 12.4514 14.6309 14.1714 12.5009 14.1714ZM12.5009 7.94141C11.2009 7.94141 10.1309 9.00141 10.1309 10.3114C10.1309 11.6214 11.1909 12.6814 12.5009 12.6814C13.8109 12.6814 14.8709 11.6214 14.8709 10.3114C14.8709 9.00141 13.8009 7.94141 12.5009 7.94141Z" fill="#E5C1C4"/>
<path d="M12.4997 22.76C11.0197 22.76 9.52969 22.2 8.36969 21.09C5.41969 18.25 2.15969 13.72 3.38969 8.33C4.49969 3.44 8.76969 1.25 12.4997 1.25C12.4997 1.25 12.4997 1.25 12.5097 1.25C16.2397 1.25 20.5097 3.44 21.6197 8.34C22.8397 13.73 19.5797 18.25 16.6297 21.09C15.4697 22.2 13.9797 22.76 12.4997 22.76ZM12.4997 2.75C9.58969 2.75 5.84969 4.3 4.85969 8.66C3.77969 13.37 6.73969 17.43 9.41969 20C11.1497 21.67 13.8597 21.67 15.5897 20C18.2597 17.43 21.2197 13.37 20.1597 8.66C19.1597 4.3 15.4097 2.75 12.4997 2.75Z" fill="#E5C1C4"/>
</svg>
