<svg width="31" height="31" viewBox="0 0 31 31" fill="none" xmlns="http://www.w3.org/2000/svg">
<g filter="url(#filter0_d_9356_12986)">
<path d="M16.55 16.2522H14.67C13.34 16.2522 12.25 15.1322 12.25 13.7522C12.25 13.3422 12.59 13.0022 13 13.0022C13.41 13.0022 13.75 13.3422 13.75 13.7522C13.75 14.3022 14.16 14.7522 14.67 14.7522H16.55C16.94 14.7522 17.25 14.4022 17.25 13.9722C17.25 13.4322 17.1 13.3522 16.76 13.2322L13.75 12.1822C13.11 11.9522 12.25 11.4922 12.25 10.0222C12.25 8.77219 13.24 7.74219 14.45 7.74219H16.33C17.66 7.74219 18.75 8.86219 18.75 10.2422C18.75 10.6522 18.41 10.9922 18 10.9922C17.59 10.9922 17.25 10.6522 17.25 10.2422C17.25 9.69219 16.84 9.24219 16.33 9.24219H14.45C14.06 9.24219 13.75 9.59219 13.75 10.0222C13.75 10.5622 13.9 10.6422 14.24 10.7622L17.25 11.8122C17.89 12.0422 18.75 12.5022 18.75 13.9722C18.75 15.2322 17.76 16.2522 16.55 16.2522Z" fill="#E5C1C4"/>
<path d="M15.5 17.25C15.09 17.25 14.75 16.91 14.75 16.5V7.5C14.75 7.09 15.09 6.75 15.5 6.75C15.91 6.75 16.25 7.09 16.25 7.5V16.5C16.25 16.91 15.91 17.25 15.5 17.25Z" fill="#E5C1C4"/>
<path d="M15.5 22.75C9.57 22.75 4.75 17.93 4.75 12C4.75 6.07 9.57 1.25 15.5 1.25C15.91 1.25 16.25 1.59 16.25 2C16.25 2.41 15.91 2.75 15.5 2.75C10.4 2.75 6.25 6.9 6.25 12C6.25 17.1 10.4 21.25 15.5 21.25C20.6 21.25 24.75 17.1 24.75 12C24.75 11.59 25.09 11.25 25.5 11.25C25.91 11.25 26.25 11.59 26.25 12C26.25 17.93 21.43 22.75 15.5 22.75Z" fill="#E5C1C4"/>
<path d="M25.5 6.75C25.09 6.75 24.75 6.41 24.75 6V2.75H21.5C21.09 2.75 20.75 2.41 20.75 2C20.75 1.59 21.09 1.25 21.5 1.25H25.5C25.91 1.25 26.25 1.59 26.25 2V6C26.25 6.41 25.91 6.75 25.5 6.75Z" fill="#E5C1C4"/>
<path d="M20.4995 7.75141C20.3095 7.75141 20.1195 7.6814 19.9695 7.5314C19.6795 7.2414 19.6795 6.76141 19.9695 6.47141L24.9695 1.47141C25.2595 1.18141 25.7395 1.18141 26.0295 1.47141C26.3195 1.76141 26.3195 2.2414 26.0295 2.5314L21.0295 7.5314C20.8795 7.6814 20.6895 7.75141 20.4995 7.75141Z" fill="#E5C1C4"/>
</g>
<defs>
<filter id="filter0_d_9356_12986" x="0.75" y="1.25" width="29.5" height="29.5" filterUnits="userSpaceOnUse" color-interpolation-filters="sRGB">
<feFlood flood-opacity="0" result="BackgroundImageFix"/>
<feColorMatrix in="SourceAlpha" type="matrix" values="0 0 0 0 0 0 0 0 0 0 0 0 0 0 0 0 0 0 127 0" result="hardAlpha"/>
<feOffset dy="4"/>
<feGaussianBlur stdDeviation="2"/>
<feComposite in2="hardAlpha" operator="out"/>
<feColorMatrix type="matrix" values="0 0 0 0 0 0 0 0 0 0 0 0 0 0 0 0 0 0 0.25 0"/>
<feBlend mode="normal" in2="BackgroundImageFix" result="effect1_dropShadow_9356_12986"/>
<feBlend mode="normal" in="SourceGraphic" in2="effect1_dropShadow_9356_12986" result="shape"/>
</filter>
</defs>
</svg>
