<svg width="336" height="328" viewBox="0 0 336 328" fill="none" xmlns="http://www.w3.org/2000/svg">
<path d="M169.205 0.119238C85.3313 -2.42783 12.6794 60.1573 1.70294 142.277C-10.2982 232.064 55.7547 312.85 137.03 325.789C238.123 341.883 336.177 248.777 327.373 147.77C320.739 71.6706 254.463 2.70822 169.205 0.119238Z" fill="#F4F7FA"/>
<mask id="mask0_5566_37872" style="mask-type:luminance" maskUnits="userSpaceOnUse" x="27" y="0" width="195" height="154">
<path d="M57.4667 74.5242C67.6613 54.5927 82.8025 30.9139 96.2132 54.7211C109.624 78.5282 146.649 55.8775 158.474 21.3154C170.046 -12.506 236.845 -11.4521 218.52 64.0499C207.577 109.139 162.408 111.155 139.84 117.595C117.272 124.036 121.983 158.543 91.679 152.288C65.794 146.946 44.6571 131.365 30.9916 149.025C17.3261 166.685 50.7067 87.7407 57.4667 74.5242Z" fill="white"/>
</mask>
<g mask="url(#mask0_5566_37872)">
<path d="M158.474 21.3155C146.648 55.8775 113.618 78.7062 96.2128 57.6428C80.8291 39.0264 67.6609 54.5927 57.4663 74.5242C51.4262 86.3331 41.8635 114.112 13.726 108.713C13.7539 109.171 13.7053 109.647 13.5681 110.146C12.8084 128.126 11.3977 146.069 10.4629 164.039C18.3596 161.917 25.0955 156.644 30.9909 149.025C44.6564 131.365 65.7934 146.946 91.6784 152.288C121.982 158.543 117.271 124.036 139.839 117.595C162.407 111.155 207.577 109.139 218.52 64.0498C236.844 -11.4522 170.045 -12.5061 158.474 21.3155Z" fill="#ED2E2E"/>
</g>
<mask id="mask1_5566_37872" style="mask-type:luminance" maskUnits="userSpaceOnUse" x="27" y="0" width="195" height="154">
<path d="M57.4667 74.5242C67.6613 54.5927 82.8025 30.9139 96.2132 54.7211C109.624 78.5282 146.649 55.8775 158.474 21.3154C170.046 -12.506 236.845 -11.4521 218.52 64.0499C207.577 109.139 162.408 111.155 139.84 117.595C117.272 124.036 121.983 158.543 91.679 152.288C65.794 146.946 44.6571 131.365 30.9916 149.025C17.3261 166.685 50.7067 87.7407 57.4667 74.5242Z" fill="white"/>
</mask>
<g mask="url(#mask1_5566_37872)">
<g opacity="0.5">
<path d="M198.47 -10.3354C198.375 63.4715 134.875 99.0489 81.6207 115.897C57.2294 123.615 32.7056 128.217 12.4599 130.959C12.4404 131.279 12.4218 131.599 12.4023 131.919C32.7249 129.174 57.3713 124.559 81.8875 116.804C115.944 106.03 143.094 91.3961 162.583 73.3065C186.98 50.6617 199.372 22.5209 199.414 -10.3345L198.47 -10.3354Z" fill="white"/>
<path d="M151.979 82.3292L151.916 81.3869C183.273 79.2705 224.508 59.1842 224.921 58.9817L225.337 59.8291C224.922 60.0325 183.52 80.2003 151.979 82.3292Z" fill="white"/>
<path d="M167.82 66.7953C181.221 31.8235 166.247 4.47288 166.094 4.20099L166.917 3.73853C167.072 4.01459 182.267 31.7325 168.702 67.1331L167.82 66.7953Z" fill="white"/>
<path d="M43.1777 125.795C84.8784 106.967 84.0879 45.446 84.0301 44.8473L84.9611 44.6953C85.0735 45.2775 85.6372 107.661 43.5662 126.656L43.1777 125.795Z" fill="white"/>
<path d="M61.7539 122.496L61.7672 121.551C90.9607 121.954 116.165 148.657 116.416 148.927L115.725 149.57C115.476 149.303 90.5399 122.892 61.7539 122.496Z" fill="white"/>
<path d="M26.3339 156.307C23.515 153.71 18.0547 148.681 11.6442 144.025C11.6209 144.396 11.5975 144.767 11.5742 145.137C17.7258 149.662 22.9636 154.486 25.6942 157.002C26.9039 158.116 27.4039 158.574 27.6285 158.707L28.1107 157.896C27.9528 157.798 27.2029 157.108 26.3339 156.307Z" fill="white"/>
</g>
</g>
<path d="M149.064 105.118C142.257 97.6297 132.468 98.3218 125.462 99.9322C125.125 100.844 124.698 101.282 124.154 102.124C119.252 109.717 118.779 114.001 115.128 122.249C114.342 124.024 113.621 129.936 113.481 132.37L113.293 136.913C113.293 136.913 130.953 152.1 140.65 143.063C150.348 134.027 168.95 146.322 179.608 151.621C186.152 154.875 190.188 154.267 192.784 155.077C220.272 163.647 225.176 174.761 235.826 172.057C247.583 169.072 244.973 154.674 257.591 150.751C271.84 146.321 284.735 161.707 297.283 154.502C299.434 153.267 301.611 151.939 303.603 149.298C308.52 142.776 306.497 135.206 314.504 132.252C330.599 126.313 341.327 110.583 332.587 95.2147C323.962 80.0468 294.797 82.7803 263.709 105.973C239.72 119.945 234.658 118.308 223.204 111.926C215.181 107.456 196.391 90.0205 183.089 98.9765C169.787 107.932 156.845 113.679 149.064 105.118Z" fill="#8BD4FE"/>
<mask id="mask2_5566_37872" style="mask-type:luminance" maskUnits="userSpaceOnUse" x="112" y="85" width="224" height="72">
<path d="M116.671 102.64L112.805 135.942C112.805 135.942 130.954 152.1 140.651 143.063C150.349 134.027 168.951 146.322 179.608 151.621C208.525 165.999 218.569 129.905 257.182 145.148C267.452 149.202 285.683 160.662 297.284 154.503C310.499 147.485 304.208 136.051 314.505 132.252C330.6 126.314 341.328 110.584 332.588 95.215C323.962 80.047 294.798 82.7806 263.71 105.973C239.72 119.946 234.659 118.308 223.205 111.926C215.182 107.456 196.391 90.0208 183.09 98.9767C169.788 107.933 156.847 113.679 149.065 105.118C137.224 92.0923 116.671 102.64 116.671 102.64Z" fill="white"/>
</mask>
<g mask="url(#mask2_5566_37872)">
<g opacity="0.5">
<path d="M116.422 117.714L116.268 118.36C119.829 119.245 123.432 120.089 126.977 120.87C153.221 126.65 179.085 129.573 203.848 129.557C224.831 129.543 245.32 127.423 264.746 123.258C280.368 119.908 295.39 115.222 309.396 109.331C319.241 105.19 328.487 100.5 336.874 95.3912C338.336 94.5013 339.787 93.5045 341.19 92.5405C343.06 91.2562 344.993 89.928 346.967 88.8427L346.697 88.2539C344.696 89.3541 342.75 90.6911 340.868 91.9842C339.472 92.9435 338.028 93.9352 336.581 94.8163C328.22 99.9087 319.002 104.585 309.184 108.714C295.214 114.591 280.227 119.265 264.641 122.608C245.255 126.764 224.807 128.879 203.864 128.893C179.143 128.91 153.321 125.991 127.116 120.22C123.576 119.44 119.979 118.597 116.422 117.714Z" fill="white"/>
<path d="M240.84 126.63L240.878 127.291C267.323 124.76 304.898 151.054 305.275 151.32L305.624 150.763C305.245 150.495 267.496 124.079 240.84 126.63Z" fill="white"/>
<path d="M166.461 126.755L166.428 127.418C184.53 127.953 208.713 100.338 208.956 100.059L208.509 99.6135C208.269 99.8903 184.281 127.282 166.461 126.755Z" fill="white"/>
<path d="M156.238 125.496L156.096 126.146C167.613 128.738 181.864 138.925 196.223 154.831C196.945 155.631 196.945 155.631 197.059 155.658L197.208 155.01L197.134 155.334L197.315 155.062C197.261 155.014 196.988 154.712 196.672 154.362C182.23 138.366 167.871 128.114 156.238 125.496Z" fill="white"/>
<path d="M122.943 119.228L122.979 119.889C135.992 118.701 147.231 101.477 147.343 101.303L146.838 100.935C146.728 101.106 135.658 118.067 122.943 119.228Z" fill="white"/>
<path d="M116.033 118.638C124.71 124.761 131.966 133.809 138.218 146.3L138.764 145.974C132.464 133.387 125.143 124.263 116.382 118.081L116.033 118.638Z" fill="white"/>
<path d="M300.885 112.04L300.957 112.696C315.609 110.411 331.404 111.646 336.594 112.052C337.851 112.15 338.293 112.183 338.45 112.166L338.403 111.506C338.283 111.518 337.565 111.461 336.655 111.39C331.449 110.983 315.604 109.744 300.885 112.04Z" fill="white"/>
<path d="M277.48 119.53L277.731 120.129C290.382 113.748 300.269 85.6995 300.684 84.5086L300.106 84.291C300.005 84.5799 289.896 113.268 277.48 119.53Z" fill="white"/>
</g>
</g>
<path d="M317.598 28.301C306.763 -9.59642 248.546 10.4225 225.302 48.8484C218.559 59.9963 212.976 65.6436 207.98 67.9276C192.874 73.7056 182.414 80.8349 175.654 86.2763C156.045 102.061 152.431 115.831 134.038 125.99C122.42 132.408 110.965 134.037 103.229 134.432C103.41 136.121 103.382 137.876 103.092 139.692C102.577 142.932 102.061 146.173 101.545 149.413C108.232 153.598 115.31 156.302 119.99 147.08C127.259 132.758 152.571 137.7 160.684 143.753C170.725 151.244 194.448 168.175 206.013 146.218C215.641 127.939 218.343 114.092 242.278 117.706C266.212 121.32 283.658 110.722 286.703 87.6525C289.907 63.3757 323.816 50.0506 317.598 28.301Z" fill="#FEC52C"/>
<mask id="mask3_5566_37872" style="mask-type:luminance" maskUnits="userSpaceOnUse" x="96" y="8" width="223" height="150">
<path d="M96.2129 146.44C102.619 150.894 114.762 157.382 119.991 147.08C127.26 132.758 152.571 137.7 160.684 143.752C170.725 151.243 194.448 168.175 206.013 146.218C215.641 127.939 218.344 114.092 242.278 117.706C266.213 121.32 283.658 110.721 286.703 87.6523C289.907 63.3758 323.816 50.0509 317.598 28.3012C306.763 -9.59648 248.547 10.4225 225.302 48.8485C202.058 87.2745 96.2129 146.44 96.2129 146.44Z" fill="white"/>
</mask>
<g mask="url(#mask3_5566_37872)">
<g opacity="0.5">
<path d="M218.878 93.5847C200.385 102.748 180.908 109.735 160.963 114.264C159.624 114.966 158.275 115.65 156.918 116.318C179.045 111.695 200.65 104.062 221.034 93.7817C220.316 93.7028 219.597 93.637 218.878 93.5847Z" fill="white"/>
<path d="M315.338 12.553C293.178 43.0781 264.342 68.3171 231.896 86.6819C232.119 86.9072 232.347 87.1271 232.567 87.3545C232.604 87.3929 232.659 87.4489 232.722 87.5142C265.175 69.0868 294.017 43.8061 316.2 13.2508L315.338 12.553Z" fill="white"/>
<path d="M155.802 116.867C155.263 117.128 154.722 117.383 154.182 117.639C183.765 124.855 201.593 156.36 201.773 156.684L202.713 156.092C202.534 155.769 185.025 124.811 155.802 116.867Z" fill="white"/>
<path d="M169.437 53.3506C169.821 52.0135 170.023 51.2395 170.039 51.174L168.988 50.8826C168.97 50.9509 168.749 51.8002 168.33 53.2504C168.699 53.2815 169.068 53.3138 169.437 53.3506Z" fill="white"/>
<path d="M233.834 88.6864C234.141 89.0213 234.481 89.4014 234.833 89.8142C257.864 89.5024 283.432 107.877 283.717 108.084L284.339 107.132C284.047 106.919 257.492 87.8341 233.834 88.6864Z" fill="white"/>
<path d="M269.691 60.9243L270.487 61.7054C290.082 39.345 289.511 -1.67595 289.503 -2.08838L288.413 -2.05447C288.422 -1.64729 288.982 38.9125 269.691 60.9243Z" fill="white"/>
</g>
</g>
<path d="M296.191 278.307L25.3779 302.754C21.3354 303.084 15.5352 297.738 15.5352 293.682V88.6417C15.5352 84.8457 18.5845 81.7541 22.3799 81.7015L295.53 77.9241C299.401 77.8706 306.717 80.7239 306.717 84.5949L302.567 271.39C302.567 275.004 299.794 278.013 296.191 278.307Z" fill="url(#paint0_linear_5566_37872)"/>
<path d="M301.693 280.203L28.5424 302.496C24.4999 302.825 21.0371 299.634 21.0371 295.578V90.5378C21.0371 86.7419 24.0864 83.6501 27.8819 83.5977L301.032 79.8203C304.903 79.7668 308.069 82.8895 308.069 86.7603V273.286C308.069 276.9 305.296 279.91 301.693 280.203Z" fill="url(#paint1_linear_5566_37872)"/>
<path d="M52.6771 294.175L284.043 275.751C287.737 275.457 290.585 272.374 290.585 268.668V91.7003C290.585 87.7335 287.337 84.5349 283.37 84.5958L52.0041 88.1479C48.1229 88.2075 45.0078 91.3707 45.0078 95.2524V287.092C45.0078 291.239 48.5437 294.504 52.6771 294.175Z" fill="url(#paint2_linear_5566_37872)"/>
<path d="M300.248 186.098C298.911 186.098 297.828 185.015 297.828 183.679V165.741C297.828 164.405 298.912 163.322 300.248 163.322C301.584 163.322 302.667 164.405 302.667 165.741V183.679C302.667 185.015 301.584 186.098 300.248 186.098Z" fill="url(#paint3_linear_5566_37872)"/>
<path opacity="0.9" d="M249.739 236.322C228.667 217.942 211.776 225.132 189.485 206.457C161.817 183.276 175.594 161.9 151.237 141.488C120.779 115.963 83.9757 136.667 61.119 111.099C55.1371 104.408 51.8069 96.4405 50.0585 88.4543C47.1335 89.3374 45.0078 92.0474 45.0078 95.2521V287.092C45.0078 291.238 48.5437 294.504 52.6771 294.175L274.228 276.533C270.178 262.785 262.963 247.856 249.739 236.322Z" fill="white"/>
<g opacity="0.3">
<path d="M258.339 178.156L78.3467 184.932C75.2943 185.046 72.8145 182.838 72.8145 180V167.957C72.8145 165.135 75.2841 162.778 78.324 162.691L257.63 157.516C260.248 157.441 262.441 159.492 262.533 162.1L262.925 173.229C263.017 175.85 260.966 178.057 258.339 178.156Z" fill="#97A6B7"/>
<path d="M85.6035 189.194L101.923 248.867C102.962 252.67 106.631 255.144 110.81 254.868L232.034 246.852C235.805 246.603 239.004 243.822 239.804 240.113L252.192 182.624L85.6035 189.194ZM131.843 243.725C131.869 246.127 129.86 248.205 127.352 248.365L123.014 248.643C120.492 248.804 118.427 246.976 118.407 244.561L118.018 197.926C117.998 195.554 120.011 193.548 122.507 193.444L126.803 193.265C129.286 193.161 131.317 194.988 131.342 197.347L131.843 243.725ZM155.75 242.238C155.786 244.616 153.824 246.673 151.365 246.83L147.11 247.102C144.637 247.26 142.603 245.449 142.573 243.058L141.983 196.884C141.953 194.536 143.919 192.55 146.368 192.448L150.581 192.272C153.017 192.17 155.018 193.98 155.053 196.316L155.75 242.238ZM179.2 240.78C179.246 243.134 177.33 245.169 174.917 245.324L170.744 245.591C168.318 245.746 166.314 243.951 166.274 241.584L165.492 195.862C165.452 193.537 167.372 191.571 169.775 191.471L173.909 191.298C176.298 191.199 178.27 192.992 178.315 195.305L179.2 240.78ZM202.206 239.35C202.262 241.681 200.39 243.695 198.023 243.846L193.928 244.108C191.549 244.26 189.574 242.482 189.524 240.138L188.557 194.86C188.508 192.557 190.384 190.611 192.741 190.513L196.797 190.343C199.143 190.245 201.085 192.022 201.139 194.313L202.206 239.35ZM224.781 237.946C224.845 240.255 223.017 242.248 220.694 242.397L216.676 242.654C214.341 242.803 212.396 241.041 212.336 238.72L211.191 193.876C211.133 191.595 212.965 189.668 215.279 189.572L219.26 189.406C221.562 189.31 223.477 191.07 223.54 193.34L224.781 237.946Z" fill="#97A6B7"/>
<path d="M158.968 103.738C158.063 102.774 156.226 102.918 154.864 104.061L98.1769 151.636C96.7231 152.855 96.3121 154.647 97.2608 155.635C98.209 156.623 100.155 156.431 101.605 155.209L158.147 107.553C159.506 106.409 159.872 104.701 158.968 103.738Z" fill="#97A6B7"/>
<path d="M181.32 103.517C182.182 102.552 184.005 102.685 185.39 103.812L240.42 148.577C241.766 149.672 242.195 151.351 241.378 152.327C240.559 153.305 238.801 153.21 237.451 152.113L182.272 107.31C180.882 106.182 180.456 104.483 181.32 103.517Z" fill="#97A6B7"/>
</g>
<path d="M219.614 182.347C217.178 208.673 193.859 229.47 167.448 228.796C140.947 228.12 121.383 206.096 123.834 179.607C126.285 153.118 149.81 132.327 176.296 133.166C202.692 134.003 222.05 156.021 219.614 182.347Z" fill="url(#paint4_linear_5566_37872)"/>
<path d="M172.347 211.234C155.663 211.234 142.09 197.661 142.09 180.977C142.09 164.293 155.663 150.72 172.347 150.72C189.03 150.72 202.604 164.293 202.604 180.977C202.604 197.661 189.03 211.234 172.347 211.234ZM172.347 161.85C161.8 161.85 153.219 170.43 153.219 180.977C153.219 191.524 161.8 200.105 172.347 200.105C182.893 200.105 191.474 191.524 191.474 180.977C191.474 170.43 182.893 161.85 172.347 161.85Z" fill="white"/>
<path d="M158.352 201.881C156.933 201.881 155.514 201.342 154.429 200.263C152.249 198.096 152.239 194.572 154.405 192.393L184.611 162.009C186.778 159.829 190.301 159.819 192.48 161.985C194.66 164.152 194.67 167.676 192.504 169.855L162.298 200.239C161.21 201.334 159.781 201.881 158.352 201.881Z" fill="white"/>
<g opacity="0.2">
<path d="M167.772 216.115C164.302 209.975 171.323 204.923 171.609 192.679C172.045 174.086 156.284 167.345 158.397 151.661C158.984 147.3 161.151 140.777 169.282 133.451C145.776 136.09 126.066 155.484 123.834 179.607C121.383 206.096 140.947 228.12 167.448 228.796C176.483 229.026 185.155 226.743 192.754 222.587C182.864 223.253 171.443 222.612 167.772 216.115Z" fill="url(#paint5_linear_5566_37872)"/>
</g>
<path d="M259.574 289.26C233.075 288.981 231.692 290.921 231.493 291.812C230.579 295.903 248.353 305.968 267.232 307.64C278.399 308.629 287.611 306.427 306.035 302.024C318.321 299.088 324.464 297.62 324.416 295.897C324.281 291.026 279.313 289.467 259.574 289.26Z" fill="#D8DEE8"/>
<path d="M269.707 293.446C267.292 293.935 261.366 286.019 263.031 279.49C264.863 272.31 274.243 273.212 277.195 265.382C279.606 258.989 274.296 256.139 276.013 247.415C277.179 241.493 281.254 235.369 286.855 232.242C294.179 228.154 299.067 232.006 303.823 227.721C309.421 222.678 306.647 213.743 308.81 213.329C311.953 212.727 322.242 230.755 316.337 239.431C311.373 246.724 299.267 241.086 293.146 249.221C287.999 256.061 294.652 262.581 288.937 270.65C284.231 277.294 277.159 275.593 273.015 283.338C270.185 288.626 271.445 293.093 269.707 293.446Z" fill="#96D9C9"/>
<mask id="mask4_5566_37872" style="mask-type:luminance" maskUnits="userSpaceOnUse" x="262" y="213" width="57" height="81">
<path d="M269.707 293.446C267.292 293.935 261.366 286.019 263.031 279.49C264.863 272.31 274.243 273.212 277.195 265.382C279.606 258.989 274.296 256.139 276.013 247.415C277.179 241.493 281.254 235.369 286.855 232.242C294.179 228.154 299.067 232.006 303.823 227.721C309.421 222.678 306.647 213.743 308.81 213.329C311.953 212.727 322.242 230.755 316.337 239.431C311.373 246.724 299.267 241.086 293.146 249.221C287.999 256.061 294.652 262.581 288.937 270.65C284.231 277.294 277.159 275.593 273.015 283.338C270.185 288.626 271.445 293.093 269.707 293.446Z" fill="white"/>
</mask>
<g mask="url(#mask4_5566_37872)">
<path opacity="0.5" d="M270.833 283.927L270.691 283.776C277.73 277.178 282.12 269.875 283.741 262.071C284.652 257.682 284.525 254.054 284.412 250.852C284.266 246.674 284.151 243.373 286.765 240.939C289.345 238.536 292.673 238.651 296.197 238.773C300.045 238.906 304.025 239.043 307.394 235.897C310.74 232.772 311.417 228.257 311.706 226.329C312.802 219.015 309.436 213.181 307.937 211.012L308.108 210.894C309.62 213.083 313.018 218.972 311.911 226.359C311.619 228.309 310.935 232.874 307.536 236.048C304.104 239.253 300.081 239.114 296.19 238.98C292.71 238.86 289.424 238.746 286.906 241.091C284.361 243.46 284.47 246.558 284.62 250.845C284.732 254.058 284.859 257.7 283.943 262.113C282.314 269.96 277.903 277.3 270.833 283.927Z" fill="white"/>
</g>
<mask id="mask5_5566_37872" style="mask-type:luminance" maskUnits="userSpaceOnUse" x="262" y="213" width="57" height="81">
<path d="M269.707 293.446C267.292 293.935 261.366 286.019 263.031 279.49C264.863 272.31 274.243 273.212 277.195 265.382C279.606 258.989 274.296 256.139 276.013 247.415C277.179 241.493 281.254 235.369 286.855 232.242C294.179 228.154 299.067 232.006 303.823 227.721C309.421 222.678 306.647 213.743 308.81 213.329C311.953 212.727 322.242 230.755 316.337 239.431C311.373 246.724 299.267 241.086 293.146 249.221C287.999 256.061 294.652 262.581 288.937 270.65C284.231 277.294 277.159 275.593 273.015 283.338C270.185 288.626 271.445 293.093 269.707 293.446Z" fill="white"/>
</mask>
<g mask="url(#mask5_5566_37872)">
<path opacity="0.5" d="M307.278 237.842C306.715 237.66 306.256 237.37 305.973 236.931C305.347 235.957 305.935 234.785 306.616 233.427C307.339 231.984 308.159 230.349 307.97 228.369C307.71 225.638 305.568 223.003 301.604 220.537L301.713 220.361C305.736 222.863 307.91 225.551 308.177 228.35C308.371 230.388 307.5 232.124 306.801 233.519C306.122 234.875 305.585 235.945 306.147 236.819C307.238 238.515 311.312 237.8 313.27 237.457C317.795 236.663 322.066 234.645 325.964 231.456L326.095 231.617C322.169 234.828 317.866 236.861 313.306 237.661C311.79 237.927 309.033 238.41 307.278 237.842Z" fill="white"/>
</g>
<mask id="mask6_5566_37872" style="mask-type:luminance" maskUnits="userSpaceOnUse" x="262" y="213" width="57" height="81">
<path d="M269.707 293.446C267.292 293.935 261.366 286.019 263.031 279.49C264.863 272.31 274.243 273.212 277.195 265.382C279.606 258.989 274.296 256.139 276.013 247.415C277.179 241.493 281.254 235.369 286.855 232.242C294.179 228.154 299.067 232.006 303.823 227.721C309.421 222.678 306.647 213.743 308.81 213.329C311.953 212.727 322.242 230.755 316.337 239.431C311.373 246.724 299.267 241.086 293.146 249.221C287.999 256.061 294.652 262.581 288.937 270.65C284.231 277.294 277.159 275.593 273.015 283.338C270.185 288.626 271.445 293.093 269.707 293.446Z" fill="white"/>
</mask>
<g mask="url(#mask6_5566_37872)">
<path opacity="0.5" d="M284.43 249.124L284.382 249.065C283.229 247.658 282.571 246.17 282.425 244.643C282.13 241.54 284.016 238.95 285.68 236.666C287.218 234.554 288.546 232.731 287.913 230.962C287.556 229.962 286.603 229.145 285.081 228.535L285.158 228.343C286.737 228.976 287.73 229.834 288.108 230.892C288.778 232.764 287.42 234.629 285.848 236.788C284.205 239.043 282.343 241.599 282.631 244.624C282.771 246.087 283.397 247.518 284.494 248.876C286.488 248.086 288.553 247.675 290.634 247.653C297.12 247.586 301.826 251.385 303.548 253.022L303.406 253.172C301.702 251.553 297.047 247.794 290.636 247.86C288.556 247.882 286.492 248.298 284.5 249.096L284.43 249.124Z" fill="white"/>
</g>
<mask id="mask7_5566_37872" style="mask-type:luminance" maskUnits="userSpaceOnUse" x="262" y="213" width="57" height="81">
<path d="M269.707 293.446C267.292 293.935 261.366 286.019 263.031 279.49C264.863 272.31 274.243 273.212 277.195 265.382C279.606 258.989 274.296 256.139 276.013 247.415C277.179 241.493 281.254 235.369 286.855 232.242C294.179 228.154 299.067 232.006 303.823 227.721C309.421 222.678 306.647 213.743 308.81 213.329C311.953 212.727 322.242 230.755 316.337 239.431C311.373 246.724 299.267 241.086 293.146 249.221C287.999 256.061 294.652 262.581 288.937 270.65C284.231 277.294 277.159 275.593 273.015 283.338C270.185 288.626 271.445 293.093 269.707 293.446Z" fill="white"/>
</mask>
<g mask="url(#mask7_5566_37872)">
<path opacity="0.5" d="M281.467 269.631L281.431 269.595C281.253 269.419 263.651 251.945 262.852 251.396L262.969 251.225C263.773 251.778 280.418 268.298 281.541 269.413L308.806 266.034L308.832 266.239L281.467 269.631Z" fill="white"/>
</g>
<path d="M269.766 299.075C268.263 298.54 266.109 297.605 263.84 295.949C261.456 294.21 259.175 292.546 258.303 289.753C257.296 286.529 259.302 285.516 258.293 282.561C257.147 279.204 254.105 279.546 252.918 276.058C252.113 273.69 252.803 271.442 253.414 269.455C254.146 267.072 255.811 263.647 256.899 263.868C258.189 264.131 256.457 269.069 259.391 272.473C261.614 275.051 264.196 274.064 266.394 277.075C266.692 277.483 268.35 279.755 267.989 282.469C267.545 285.797 264.891 286.68 264.26 289.436C263.809 291.404 264.546 294.431 269.766 299.075Z" fill="#3C8F7C"/>
<mask id="mask8_5566_37872" style="mask-type:luminance" maskUnits="userSpaceOnUse" x="252" y="263" width="18" height="37">
<path d="M269.766 299.075C268.263 298.54 266.109 297.605 263.84 295.949C261.456 294.21 259.175 292.546 258.303 289.753C257.296 286.529 259.302 285.516 258.293 282.561C257.147 279.204 254.105 279.546 252.918 276.058C252.113 273.69 252.803 271.442 253.414 269.455C254.146 267.072 255.811 263.647 256.899 263.868C258.189 264.131 256.457 269.069 259.391 272.473C261.614 275.051 264.196 274.064 266.394 277.075C266.692 277.483 268.35 279.755 267.989 282.469C267.545 285.797 264.891 286.68 264.26 289.436C263.809 291.404 264.546 294.431 269.766 299.075Z" fill="white"/>
</mask>
<g mask="url(#mask8_5566_37872)">
<path opacity="0.3" d="M270.501 300.245C270.027 299.792 269.395 299.253 268.726 298.681C265.792 296.176 261.774 292.745 262.215 289.498C262.447 287.788 262.739 286.457 262.974 285.388C263.427 283.324 263.701 282.078 263.066 280.462C262.313 278.545 260.944 277.731 259.495 276.87C258.192 276.095 256.844 275.293 255.942 273.63C254.478 270.932 254.893 267.14 257.176 262.36L257.363 262.449C255.11 267.166 254.693 270.894 256.124 273.531C256.999 275.145 258.322 275.931 259.601 276.692C261.016 277.533 262.48 278.403 263.259 280.386C263.917 282.061 263.638 283.33 263.176 285.433C262.942 286.498 262.651 287.824 262.42 289.526C261.995 292.661 265.963 296.05 268.861 298.524C269.532 299.097 270.166 299.638 270.644 300.095L270.501 300.245Z" fill="white"/>
</g>
<mask id="mask9_5566_37872" style="mask-type:luminance" maskUnits="userSpaceOnUse" x="252" y="263" width="18" height="37">
<path d="M269.766 299.075C268.263 298.54 266.109 297.605 263.84 295.949C261.456 294.21 259.175 292.546 258.303 289.753C257.296 286.529 259.302 285.516 258.293 282.561C257.147 279.204 254.105 279.546 252.918 276.058C252.113 273.69 252.803 271.442 253.414 269.455C254.146 267.072 255.811 263.647 256.899 263.868C258.189 264.131 256.457 269.069 259.391 272.473C261.614 275.051 264.196 274.064 266.394 277.075C266.692 277.483 268.35 279.755 267.989 282.469C267.545 285.797 264.891 286.68 264.26 289.436C263.809 291.404 264.546 294.431 269.766 299.075Z" fill="white"/>
</mask>
<g mask="url(#mask9_5566_37872)">
<path opacity="0.3" d="M257.217 276.57C256.326 276.281 255.351 275.798 254.452 274.992C251.189 272.07 251.936 267.535 251.97 267.344L252.174 267.379C252.141 267.566 251.412 271.992 254.59 274.838C256.236 276.311 258.14 276.679 259.278 276.755C258.781 276.231 257.612 274.762 257.857 272.749C258.062 271.073 259.123 270.022 259.57 269.647L259.703 269.806C259.275 270.164 258.259 271.171 258.063 272.774C257.783 275.066 259.425 276.625 259.613 276.795L259.823 276.985L259.541 276.975C258.973 276.957 258.14 276.868 257.217 276.57Z" fill="white"/>
</g>
<mask id="mask10_5566_37872" style="mask-type:luminance" maskUnits="userSpaceOnUse" x="252" y="263" width="18" height="37">
<path d="M269.766 299.075C268.263 298.54 266.109 297.605 263.84 295.949C261.456 294.21 259.175 292.546 258.303 289.753C257.296 286.529 259.302 285.516 258.293 282.561C257.147 279.204 254.105 279.546 252.918 276.058C252.113 273.69 252.803 271.442 253.414 269.455C254.146 267.072 255.811 263.647 256.899 263.868C258.189 264.131 256.457 269.069 259.391 272.473C261.614 275.051 264.196 274.064 266.394 277.075C266.692 277.483 268.35 279.755 267.989 282.469C267.545 285.797 264.891 286.68 264.26 289.436C263.809 291.404 264.546 294.431 269.766 299.075Z" fill="white"/>
</mask>
<g mask="url(#mask10_5566_37872)">
<path opacity="0.3" d="M263.216 284.619L263.179 284.493C262.87 283.425 262.191 281.909 260.714 280.751C257.376 278.138 253.064 279.827 252.882 279.9L252.805 279.708C252.991 279.633 257.411 277.902 260.841 280.588C262.305 281.734 263.006 283.22 263.34 284.309C264.018 283.902 265.751 282.66 266.308 280.347C267.081 277.139 264.951 274.741 264.705 274.478L264.856 274.337C265.11 274.608 267.308 277.082 266.51 280.396C265.899 282.932 263.921 284.22 263.33 284.555L263.216 284.619Z" fill="white"/>
</g>
<mask id="mask11_5566_37872" style="mask-type:luminance" maskUnits="userSpaceOnUse" x="252" y="263" width="18" height="37">
<path d="M269.766 299.075C268.263 298.54 266.109 297.605 263.84 295.949C261.456 294.21 259.175 292.546 258.303 289.753C257.296 286.529 259.302 285.516 258.293 282.561C257.147 279.204 254.105 279.546 252.918 276.058C252.113 273.69 252.803 271.442 253.414 269.455C254.146 267.072 255.811 263.647 256.899 263.868C258.189 264.131 256.457 269.069 259.391 272.473C261.614 275.051 264.196 274.064 266.394 277.075C266.692 277.483 268.35 279.755 267.989 282.469C267.545 285.797 264.891 286.68 264.26 289.436C263.809 291.404 264.546 294.431 269.766 299.075Z" fill="white"/>
</mask>
<g mask="url(#mask11_5566_37872)">
<path opacity="0.3" d="M262.269 291.023L262.213 290.868C261.731 289.54 260.946 288.319 259.941 287.337C258.514 285.944 256.943 285.297 255.875 285L255.931 284.8C257.022 285.104 258.628 285.765 260.086 287.189C261.074 288.155 261.854 289.346 262.35 290.644L268.535 284.308L268.683 284.452L262.269 291.023Z" fill="white"/>
</g>
<path d="M265.863 218.524C264.319 219.244 266.993 223.38 265.841 230.166C264.009 240.955 255.04 243.637 255.806 252.038C256.219 256.564 258.188 259.689 258.188 259.689C258.835 260.716 259.322 261.196 261.569 264.234C261.777 264.516 263.791 267.241 264.282 267.995C267.611 273.103 260.834 280.589 262.892 287.904C264.313 292.956 268.049 296.39 271.113 298.551C265.366 289.517 265.43 283.725 266.697 280.033C268.454 274.914 272.441 274.074 274.566 267.628C276.051 263.127 274.665 261.84 274.701 253.563C274.756 240.765 278.089 239.377 276.398 232.352C274.413 224.107 267.792 217.625 265.863 218.524Z" fill="#3C8F7C"/>
<mask id="mask12_5566_37872" style="mask-type:luminance" maskUnits="userSpaceOnUse" x="255" y="218" width="22" height="81">
<path d="M265.863 218.524C264.319 219.244 266.993 223.38 265.841 230.166C264.009 240.955 255.04 243.637 255.806 252.038C256.219 256.564 258.188 259.689 258.188 259.689C258.835 260.716 259.322 261.196 261.569 264.234C261.777 264.516 263.791 267.241 264.282 267.995C267.611 273.103 260.834 280.589 262.892 287.904C264.313 292.956 268.049 296.39 271.113 298.551C265.366 289.517 265.43 283.725 266.697 280.033C268.454 274.914 272.441 274.074 274.566 267.628C276.051 263.127 274.665 261.84 274.701 253.563C274.756 240.765 278.089 239.377 276.398 232.352C274.413 224.107 267.792 217.625 265.863 218.524Z" fill="white"/>
</mask>
<g mask="url(#mask12_5566_37872)">
<path opacity="0.5" d="M265.231 291.567C264.049 287.412 263.916 283.417 264.836 279.693C265.543 276.832 266.604 275.173 267.629 273.567C268.623 272.012 269.562 270.543 270.017 268.129C270.666 264.684 269.712 262.697 268.608 260.395C267.671 258.439 266.608 256.223 266.437 252.73C266.203 247.966 267.821 244.99 269.385 242.113C270.85 239.416 272.234 236.87 272.193 232.972C272.135 227.599 269.257 222.125 263.639 216.703L263.783 216.554C269.442 222.016 272.342 227.539 272.4 232.969C272.442 236.921 270.98 239.611 269.567 242.212C268.016 245.065 266.413 248.014 266.644 252.72C266.813 256.172 267.866 258.368 268.795 260.306C269.915 262.64 270.882 264.656 270.22 268.168C269.758 270.621 268.809 272.107 267.804 273.679C266.787 275.27 265.736 276.915 265.037 279.743C264.126 283.432 264.258 287.391 265.431 291.511L265.231 291.567Z" fill="white"/>
</g>
<mask id="mask13_5566_37872" style="mask-type:luminance" maskUnits="userSpaceOnUse" x="255" y="218" width="22" height="81">
<path d="M265.863 218.524C264.319 219.244 266.993 223.38 265.841 230.166C264.009 240.955 255.04 243.637 255.806 252.038C256.219 256.564 258.188 259.689 258.188 259.689C258.835 260.716 259.322 261.196 261.569 264.234C261.777 264.516 263.791 267.241 264.282 267.995C267.611 273.103 260.834 280.589 262.892 287.904C264.313 292.956 268.049 296.39 271.113 298.551C265.366 289.517 265.43 283.725 266.697 280.033C268.454 274.914 272.441 274.074 274.566 267.628C276.051 263.127 274.665 261.84 274.701 253.563C274.756 240.765 278.089 239.377 276.398 232.352C274.413 224.107 267.792 217.625 265.863 218.524Z" fill="white"/>
</mask>
<g mask="url(#mask13_5566_37872)">
<path opacity="0.5" d="M270.882 239.445L270.887 239.277C270.924 237.968 270.728 234.612 268.116 231.733C265.754 229.129 262.772 228.475 261.6 228.315L261.628 228.11C262.822 228.273 265.862 228.939 268.27 231.594C270.826 234.412 271.112 237.677 271.097 239.113C272.743 238.306 274.155 237.121 275.188 235.677C277.594 232.318 277.29 228.611 277.048 227.173L277.252 227.139C277.498 228.602 277.807 232.376 275.357 235.798C274.271 237.314 272.777 238.55 271.035 239.373L270.882 239.445Z" fill="white"/>
</g>
<mask id="mask14_5566_37872" style="mask-type:luminance" maskUnits="userSpaceOnUse" x="255" y="218" width="22" height="81">
<path d="M265.863 218.524C264.319 219.244 266.993 223.38 265.841 230.166C264.009 240.955 255.04 243.637 255.806 252.038C256.219 256.564 258.188 259.689 258.188 259.689C258.835 260.716 259.322 261.196 261.569 264.234C261.777 264.516 263.791 267.241 264.282 267.995C267.611 273.103 260.834 280.589 262.892 287.904C264.313 292.956 268.049 296.39 271.113 298.551C265.366 289.517 265.43 283.725 266.697 280.033C268.454 274.914 272.441 274.074 274.566 267.628C276.051 263.127 274.665 261.84 274.701 253.563C274.756 240.765 278.089 239.377 276.398 232.352C274.413 224.107 267.792 217.625 265.863 218.524Z" fill="white"/>
</mask>
<g mask="url(#mask14_5566_37872)">
<path opacity="0.5" d="M268.143 259.159L268.037 259.111C266.413 258.382 265.158 257.363 264.307 256.083C263.313 254.589 263.178 253.207 263.035 251.744C262.947 250.852 262.857 249.929 262.566 248.931C261.827 246.394 259.964 244.097 257.031 242.104L257.148 241.933C260.122 243.953 262.012 246.288 262.765 248.873C263.061 249.89 263.153 250.822 263.241 251.723C263.381 253.16 263.514 254.518 264.479 255.968C265.29 257.187 266.48 258.164 268.016 258.874C268.599 257.064 269.345 255.302 270.235 253.632C271.881 250.54 274.028 247.737 276.614 245.298L276.756 245.449C274.186 247.872 272.053 250.658 270.417 253.729C269.516 255.422 268.762 257.211 268.178 259.048L268.143 259.159Z" fill="white"/>
</g>
<mask id="mask15_5566_37872" style="mask-type:luminance" maskUnits="userSpaceOnUse" x="255" y="218" width="22" height="81">
<path d="M265.863 218.524C264.319 219.244 266.993 223.38 265.841 230.166C264.009 240.955 255.04 243.637 255.806 252.038C256.219 256.564 258.188 259.689 258.188 259.689C258.835 260.716 259.322 261.196 261.569 264.234C261.777 264.516 263.791 267.241 264.282 267.995C267.611 273.103 260.834 280.589 262.892 287.904C264.313 292.956 268.049 296.39 271.113 298.551C265.366 289.517 265.43 283.725 266.697 280.033C268.454 274.914 272.441 274.074 274.566 267.628C276.051 263.127 274.665 261.84 274.701 253.563C274.756 240.765 278.089 239.377 276.398 232.352C274.413 224.107 267.792 217.625 265.863 218.524Z" fill="white"/>
</mask>
<g mask="url(#mask15_5566_37872)">
<path opacity="0.5" d="M269.405 270.613L269.368 270.435C269.198 269.602 268.429 266.746 265.682 264.977C262.098 262.669 258.227 264.146 257.797 264.322L257.719 264.13C258.159 263.95 262.121 262.438 265.795 264.803C268.439 266.506 269.294 269.191 269.533 270.217C270.937 268.926 272.152 267.456 273.144 265.846C274.76 263.224 275.788 260.184 276.118 257.055L276.324 257.077C275.991 260.236 274.952 263.306 273.32 265.955C272.287 267.632 271.015 269.158 269.539 270.491L269.405 270.613Z" fill="white"/>
</g>
<path d="M271.759 299.486C270.029 298.58 266.881 296.621 265.104 293.197C261.922 287.066 265.047 279.919 269.241 276.511C274.475 272.258 278.694 276.01 283.635 272.004C289.246 267.455 285.606 261.155 291.441 256.438C295.401 253.235 300.573 253.312 305.146 253.38C310.629 253.461 319.106 254.891 319.72 257.359C320.446 260.284 308.875 259.655 304.906 268.063C301.9 274.43 306.385 279.344 302.49 285.929C301.962 286.821 299.022 291.79 293.235 292.708C285.668 293.91 280.285 287.067 275.66 289.07C273.783 289.883 271.776 292.263 271.759 299.486Z" fill="#3C8F7C"/>
<mask id="mask16_5566_37872" style="mask-type:luminance" maskUnits="userSpaceOnUse" x="263" y="253" width="57" height="47">
<path d="M271.759 299.486C270.029 298.58 266.881 296.621 265.104 293.197C261.922 287.066 265.047 279.918 269.241 276.511C274.475 272.258 278.694 276.01 283.635 272.004C289.247 267.455 285.606 261.155 291.441 256.437C295.401 253.235 300.573 253.312 305.146 253.379C310.629 253.461 319.106 254.891 319.72 257.358C320.447 260.284 308.875 259.655 304.906 268.063C301.9 274.429 306.385 279.344 302.49 285.929C301.962 286.821 299.022 291.789 293.235 292.708C285.668 293.909 280.285 287.067 275.66 289.07C273.783 289.883 271.776 292.263 271.759 299.486Z" fill="white"/>
</mask>
<g mask="url(#mask16_5566_37872)">
<path opacity="0.74" d="M271.135 301.618C267.596 293.764 267.05 288.109 269.513 284.807C271.478 282.174 274.514 281.962 278.03 281.715C281.592 281.466 285.628 281.184 289.293 278.182C292.639 275.44 293.468 272.309 294.346 268.995C295.142 265.987 295.966 262.876 298.851 260.13C303.47 255.734 311.225 254.433 321.899 256.263L321.864 256.467C311.258 254.649 303.563 255.932 298.994 260.28C296.151 262.986 295.335 266.068 294.546 269.048C293.698 272.248 292.822 275.558 289.424 278.342C285.709 281.385 281.637 281.67 278.045 281.922C274.579 282.164 271.587 282.374 269.679 284.931C267.264 288.167 267.818 293.753 271.324 301.533L271.135 301.618Z" fill="white"/>
</g>
<mask id="mask17_5566_37872" style="mask-type:luminance" maskUnits="userSpaceOnUse" x="263" y="253" width="57" height="47">
<path d="M271.759 299.486C270.029 298.58 266.881 296.621 265.104 293.197C261.922 287.066 265.047 279.918 269.241 276.511C274.475 272.258 278.694 276.01 283.635 272.004C289.247 267.455 285.606 261.155 291.441 256.437C295.401 253.235 300.573 253.312 305.146 253.379C310.629 253.461 319.106 254.891 319.72 257.358C320.447 260.284 308.875 259.655 304.906 268.063C301.9 274.429 306.385 279.344 302.49 285.929C301.962 286.821 299.022 291.789 293.235 292.708C285.668 293.909 280.285 287.067 275.66 289.07C273.783 289.883 271.776 292.263 271.759 299.486Z" fill="white"/>
</mask>
<g mask="url(#mask17_5566_37872)">
<path opacity="0.74" d="M291.576 276.544C291.489 276.516 291.405 276.481 291.324 276.439C289.904 275.701 289.93 273.097 289.956 270.578C289.996 266.634 291.108 263.532 291.767 262.034C293.874 257.246 297.275 254.116 299.757 252.333L299.878 252.501C297.417 254.269 294.045 257.373 291.957 262.118C291.304 263.601 290.202 266.673 290.163 270.581C290.138 273.037 290.113 275.576 291.42 276.256C293.481 277.327 297.736 273.233 299.336 271.691L299.46 271.572C300.533 270.54 301.247 269.601 301.876 268.773C302.761 267.61 303.524 266.605 304.955 265.749C307.112 264.458 309.852 264.089 313.097 264.653L313.062 264.857C309.867 264.302 307.175 264.662 305.061 265.927C303.665 266.763 302.912 267.752 302.041 268.898C301.407 269.733 300.688 270.678 299.603 271.722L299.48 271.84C297.91 273.352 293.837 277.276 291.576 276.544Z" fill="white"/>
</g>
<mask id="mask18_5566_37872" style="mask-type:luminance" maskUnits="userSpaceOnUse" x="263" y="253" width="57" height="47">
<path d="M271.759 299.486C270.029 298.58 266.881 296.621 265.104 293.197C261.922 287.066 265.047 279.918 269.241 276.511C274.475 272.258 278.694 276.01 283.635 272.004C289.247 267.455 285.606 261.155 291.441 256.437C295.401 253.235 300.573 253.312 305.146 253.379C310.629 253.461 319.106 254.891 319.72 257.358C320.447 260.284 308.875 259.655 304.906 268.063C301.9 274.429 306.385 279.344 302.49 285.929C301.962 286.821 299.022 291.789 293.235 292.708C285.668 293.909 280.285 287.067 275.66 289.07C273.783 289.883 271.776 292.263 271.759 299.486Z" fill="white"/>
</mask>
<g mask="url(#mask18_5566_37872)">
<path opacity="0.74" d="M287.973 287.466C285.737 286.743 283.118 284.821 280.143 281.716L280.053 281.622L280.165 281.555C282.052 280.442 283.517 279.015 284.522 277.313C285.699 275.317 285.887 273.509 286.147 271.006L286.169 270.801C286.943 263.372 287.332 259.643 287.975 258.07C289.228 255.005 291.815 252.401 295.665 250.329L295.763 250.512C291.957 252.56 289.401 255.129 288.167 258.148C287.535 259.694 287.147 263.413 286.375 270.822L286.353 271.027C286.09 273.556 285.901 275.383 284.7 277.418C283.698 279.116 282.246 280.545 280.383 281.667C284.847 286.302 288.474 288.23 291.163 287.398C292.662 286.935 293.482 285.755 294.433 284.389C295.385 283.02 296.465 281.468 298.478 280.25C301.083 278.675 304.37 278.201 308.247 278.844L308.213 279.048C304.386 278.414 301.147 278.878 298.585 280.428C296.61 281.623 295.543 283.155 294.603 284.508C293.631 285.905 292.791 287.112 291.225 287.596C290.253 287.897 289.168 287.853 287.973 287.466Z" fill="white"/>
</g>
<mask id="mask19_5566_37872" style="mask-type:luminance" maskUnits="userSpaceOnUse" x="263" y="253" width="57" height="47">
<path d="M271.759 299.486C270.029 298.58 266.881 296.621 265.104 293.197C261.922 287.066 265.047 279.918 269.241 276.511C274.475 272.258 278.694 276.01 283.635 272.004C289.247 267.455 285.606 261.155 291.441 256.437C295.401 253.235 300.573 253.312 305.146 253.379C310.629 253.461 319.106 254.891 319.72 257.358C320.447 260.284 308.875 259.655 304.906 268.063C301.9 274.429 306.385 279.344 302.49 285.929C301.962 286.821 299.022 291.789 293.235 292.708C285.668 293.909 280.285 287.067 275.66 289.07C273.783 289.883 271.776 292.263 271.759 299.486Z" fill="white"/>
</mask>
<g mask="url(#mask19_5566_37872)">
<path d="M284.716 294.906C279.43 293.196 276.527 289.347 276.497 289.306C276.335 289.087 276.172 288.853 276.004 288.611C275.125 287.345 274.126 285.912 272.345 285.441C271.377 285.186 270.315 285.254 269.186 285.643L269.05 285.69L269.049 285.546C269.038 284.208 269.351 283.058 269.981 282.129C270.783 280.945 271.976 280.469 273.028 280.048C274.103 279.619 275.031 279.248 275.361 278.253C276.138 275.905 274.921 273.834 274.669 273.443L274.843 273.331C275.104 273.736 276.364 275.881 275.557 278.318C275.197 279.404 274.181 279.811 273.105 280.241C272.08 280.65 270.919 281.114 270.152 282.245C269.569 283.106 269.268 284.167 269.256 285.401C270.373 285.04 271.429 284.986 272.398 285.241C274.255 285.729 275.274 287.198 276.175 288.493C276.341 288.733 276.502 288.965 276.663 289.182C276.696 289.226 279.949 293.539 285.847 295.015C291.554 296.442 297.249 292.238 299.432 290.364L299.567 290.521C297.359 292.416 291.598 296.667 285.797 295.216C285.426 295.123 285.066 295.019 284.716 294.906Z" fill="white"/>
</g>
<path d="M93.2663 292.957L160.546 276.128L163.911 292.474L102.318 320.902L53.5488 308.855L24.1289 279.969L93.2663 292.957Z" fill="url(#paint6_linear_5566_37872)"/>
<path d="M93.2663 292.957L160.546 276.128L163.911 292.474L102.318 320.902L53.5488 308.855L24.1289 279.969L93.2663 292.957Z" fill="#3F7FDD"/>
<path d="M91.002 315.693C104.374 308.524 114.25 301.222 120.954 295.703C134.143 284.843 140.194 276.651 153.547 273.414C155.933 272.836 169.53 269.54 173.917 275.578C178.775 282.262 169.331 296.241 168.183 297.939C151.124 323.19 107.681 322.012 94.0539 321.193C93.0366 319.359 92.0194 317.526 91.002 315.693Z" fill="#86B1F2"/>
<path opacity="0.3" d="M174.067 275.467C172.785 273.703 170.708 272.751 168.362 272.28C169.143 274.982 169.214 277.518 168.239 279.734C165.573 285.789 157.679 283.924 152.135 291.031C146.689 298.01 150.459 304.737 145.645 307.615C140.128 310.915 133.288 303.207 127.378 306.894C123.359 309.401 124.61 314.158 119.927 316.749C116.691 318.539 113.518 317.693 109.832 317.23C105.606 316.699 99.8173 316.585 92.5508 318.103C93.1018 319.096 93.653 320.09 94.2043 321.083C107.831 321.902 151.274 323.08 168.334 297.829C169.481 296.131 178.925 282.152 174.067 275.467Z" fill="#86B1F2"/>
<path d="M101.262 319.356C101.262 319.356 103.712 317.599 107.268 318.796C110.823 319.993 116.469 320.96 116.46 322.698C116.452 324.437 110.803 325.525 106.9 324.81C103.166 324.127 100.229 320.881 101.262 319.356Z" fill="url(#paint7_linear_5566_37872)"/>
<path d="M97.6712 316.388L104.215 318.493C104.215 318.493 105.278 320.264 103.843 321.387C102.409 322.51 97.4238 320.135 97.4238 320.135L97.6712 316.388Z" fill="url(#paint8_linear_5566_37872)"/>
<path d="M7.11114 286.537C5.17901 297.787 29.4572 309.956 35.0151 312.742C46.3423 318.419 67.6556 326.434 99.2883 323.372C99.7091 320.848 100.13 318.325 100.55 315.801C96.3714 314.369 90.1786 312.043 82.993 308.508C70.7295 302.475 66.0729 298.167 49.0555 287.878C30.2248 276.494 24.7396 275.033 19.129 276.442C14.3316 277.647 8.00884 281.31 7.11114 286.537Z" fill="#86B1F2"/>
<path d="M32.015 264.832C27.9111 249.989 34.6854 229.962 48.9603 220.305C60.6119 212.424 74.2642 212.935 78.5244 213.095C83.1877 213.269 82.706 213.875 97.3853 216.59C117.765 220.361 119.646 219.447 125.574 222.288C136.722 227.631 142.131 237.337 143.143 239.226C148.323 248.891 152.539 266.86 142.7 275.648C137.107 280.643 129.266 280.623 124.853 280.154C124.553 278.172 124.253 276.188 123.952 274.205C124.85 273.51 130.148 269.263 130.802 261.767C131.555 253.152 125.533 247.591 124.853 246.985C122.717 251.108 120.088 257.369 118.905 265.372C117.376 275.707 118.959 284.206 120.299 289.203C114.91 292.162 105.997 296.176 94.3881 297.46C85.6416 298.428 74.8121 296.575 67.8885 291.164C58.1189 283.529 57.2931 266.697 66.9419 246.003C63.4102 248.369 58.2936 252.648 56.1711 259.423C55.8503 260.448 55.3069 262.458 55.0894 270.24C54.6992 284.22 36.268 280.213 32.015 264.832Z" fill="#DCACB1"/>
<path opacity="0.3" d="M98.1736 275.107C93.2574 275.71 91.9194 280.814 87.3575 280.515C77.4314 279.865 69.4646 262.681 73.6571 253.294C76.3909 247.174 83.5175 246.107 83.0311 242.118C82.6422 238.925 77.696 236.469 73.6571 236.349C67.3687 236.162 63.2165 241.638 61.7594 243.56C58.3541 248.05 57.62 252.981 57.543 256.152C60.0418 251.25 64.0216 247.959 66.9419 246.002C57.2931 266.697 58.1189 283.148 67.8885 290.783C74.812 296.193 85.6415 298.428 94.388 297.46C103.81 296.418 111.456 293.577 116.884 290.962C111.61 282.377 104.892 274.283 98.1736 275.107Z" fill="url(#paint9_linear_5566_37872)"/>
<path d="M115.307 289.108L57.7812 288.249L73.0784 295.632L115.454 292.858L115.307 289.108Z" fill="url(#paint10_linear_5566_37872)"/>
<path d="M34.7967 254.941C39.2358 250.74 50.1258 253.386 54.1883 259.423C57.1789 263.868 54.7039 267.524 56.8923 273.124C59.5733 279.983 69.6862 286.185 75.9012 288.249C74.9284 290.344 75.2147 290.886 74.2419 292.98C70.2883 292.487 41.7101 288.109 34.7192 271.141C34.3551 270.257 30.0365 259.447 34.7967 254.941Z" fill="#DCACB1"/>
<path d="M99.6657 210.644C99.6657 210.644 95.0135 215.674 91.152 216.198C87.2903 216.722 81.7096 215.696 80.748 216.198C79.7864 216.7 85.5977 218.767 90.207 220.032C94.8161 221.296 103.185 223.822 105.498 223.268C107.812 222.715 102.97 219.749 101.052 218.962C99.1349 218.176 101.879 214.136 101.879 214.136L99.6657 210.644Z" fill="white"/>
<path d="M106.567 213.524C108.249 213.061 109.786 211.172 109.767 209.215C109.75 207.532 108.568 206.382 107.861 205.694C105.81 203.701 102.247 202.453 99.6633 203.763C98.1323 204.54 97.4335 208.066 97.2787 208.677C97.1037 209.368 97.3736 209.86 97.4481 210.542C97.5513 211.488 97.7022 212.982 97.9219 215.455C98.3544 215.108 98.9185 214.701 99.6099 214.321C99.8758 214.175 100.926 213.613 102.061 213.35C104.336 212.824 104.973 213.964 106.567 213.524Z" fill="url(#paint11_linear_5566_37872)"/>
<path d="M96.9566 212.774C96.9566 212.774 96.5664 216.341 99.66 218.419C102.43 220.279 107.372 214.662 106.655 212.108C106.415 211.257 105.423 210.216 104.311 209.767C103.653 209.502 103.297 209.586 102.232 209.132C101.249 208.714 101.087 208.445 100.68 208.462C100.17 208.484 99.4518 208.948 98.6363 211.075C98.5256 210.178 98.0723 209.517 97.4886 209.389C97.3954 209.369 97.1195 209.353 96.8736 209.461C95.9845 209.852 95.9369 211.19 96.9566 212.774Z" fill="white"/>
<path d="M100.833 208.016C100.887 208.209 100.133 208.384 99.5864 209.034C98.5256 210.294 98.6397 212.875 99.8837 214.045C100.619 214.737 101.208 214.426 102.63 215.3C103.511 215.842 104.11 216.467 104.465 216.889C103.777 218.638 102.289 219.764 100.824 219.689C99.2463 219.608 98.2647 218.164 97.8543 217.56C97.5797 217.156 96.6982 215.864 96.9148 214.309C97.1404 212.689 98.2926 212.496 98.1433 211.167C98.068 210.497 97.7085 209.955 97.8066 208.846C97.8332 208.545 97.8849 208.3 97.9249 208.139C99.1609 207.942 100.755 207.737 100.833 208.016Z" fill="url(#paint12_linear_5566_37872)"/>
<path d="M103.099 216.682C103.099 216.682 102.3 216.541 101.358 215.727C101.312 215.688 101.249 215.661 101.224 215.681C101.129 215.757 101.438 216.662 102.146 216.947C102.649 217.149 103.271 217.006 103.292 216.863C103.301 216.803 103.203 216.737 103.099 216.682Z" fill="url(#paint13_linear_5566_37872)"/>
<path d="M77.4278 259.342L73.373 296.262C73.233 297.536 75.0166 299.433 76.2967 299.373L135.782 295.721C136.759 295.675 137.573 294.955 137.738 293.991L145.204 258.333C145.427 257.035 143.094 255.695 141.778 255.732L79.4422 257.485C78.4013 257.514 77.5415 258.306 77.4278 259.342Z" fill="url(#paint14_linear_5566_37872)"/>
<path d="M78.7881 260.418L74.7334 297.338C74.5935 298.612 75.6248 299.71 76.905 299.649L137.142 296.798C138.119 296.751 138.933 296.032 139.099 295.067L145.253 259.246C145.476 257.948 144.455 256.771 143.139 256.808L80.8027 258.561C79.7617 258.59 78.9018 259.383 78.7881 260.418Z" fill="url(#paint15_linear_5566_37872)"/>
<path opacity="0.3" d="M114.157 288.146C108.898 285.917 110.754 281.666 104.543 276.369C96.3495 269.381 87.9979 272.411 85.074 266.995C84.1635 265.308 83.7288 262.683 85.3146 258.434L80.8007 258.561C79.7597 258.59 78.9 259.383 78.7863 260.418L74.7315 297.338C74.5916 298.612 75.6232 299.71 76.9031 299.649L137.14 296.797C138.117 296.751 138.931 296.032 139.097 295.067L139.946 290.124C138.118 289.107 135.934 288.182 133.386 287.665C124.549 285.873 120.213 290.713 114.157 288.146Z" fill="url(#paint16_linear_5566_37872)"/>
<path d="M72.4375 291.696C74.9542 294.052 76.6354 293.842 77.2 293.712C78.1469 293.494 78.2739 292.966 80.6755 291.087C82.821 289.407 83.4988 289.219 83.4737 288.64C83.4261 287.543 80.925 286.583 78.8882 286.481C76.0329 286.337 73.8758 287.872 73.0287 288.553L72.4375 291.696Z" fill="white"/>
<defs>
<linearGradient id="paint0_linear_5566_37872" x1="85.501" y1="107.501" x2="121.501" y2="247.001" gradientUnits="userSpaceOnUse">
<stop stop-color="#A72F3B"/>
<stop offset="1" stop-color="#444B8C"/>
</linearGradient>
<linearGradient id="paint1_linear_5566_37872" x1="133.348" y1="94.2428" x2="274.027" y2="531.212" gradientUnits="userSpaceOnUse">
<stop stop-color="#A72F3B"/>
<stop offset="0.34375" stop-color="#26264F"/>
</linearGradient>
<linearGradient id="paint2_linear_5566_37872" x1="45.0078" y1="189.396" x2="290.585" y2="189.396" gradientUnits="userSpaceOnUse">
<stop offset="0.494" stop-color="#EBEFF2"/>
<stop offset="1" stop-color="white"/>
</linearGradient>
<linearGradient id="paint3_linear_5566_37872" x1="320.009" y1="137.881" x2="292.456" y2="189.232" gradientUnits="userSpaceOnUse">
<stop stop-color="#A72F3B"/>
<stop offset="0.9964" stop-color="#26264F"/>
</linearGradient>
<linearGradient id="paint4_linear_5566_37872" x1="124.115" y1="176.573" x2="219.334" y2="185.381" gradientUnits="userSpaceOnUse">
<stop stop-color="#DCACB1"/>
<stop offset="1" stop-color="#A72F3B"/>
</linearGradient>
<linearGradient id="paint5_linear_5566_37872" x1="124.068" y1="177.08" x2="196.345" y2="183.766" gradientUnits="userSpaceOnUse">
<stop stop-color="#A72F3B"/>
<stop offset="1" stop-color="#EDD5D8"/>
</linearGradient>
<linearGradient id="paint6_linear_5566_37872" x1="94.7861" y1="271.095" x2="93.3439" y2="299.577" gradientUnits="userSpaceOnUse">
<stop stop-color="#FF9085"/>
<stop offset="1" stop-color="#FB6FBB"/>
</linearGradient>
<linearGradient id="paint7_linear_5566_37872" x1="115.022" y1="329.446" x2="98.7984" y2="309.256" gradientUnits="userSpaceOnUse">
<stop stop-color="#311944"/>
<stop offset="1" stop-color="#6B3976"/>
</linearGradient>
<linearGradient id="paint8_linear_5566_37872" x1="105.062" y1="324.651" x2="82.7081" y2="296.529" gradientUnits="userSpaceOnUse">
<stop stop-color="#FFC444"/>
<stop offset="0.9964" stop-color="#F36F56"/>
</linearGradient>
<linearGradient id="paint9_linear_5566_37872" x1="84.3542" y1="227.309" x2="87.409" y2="276.725" gradientUnits="userSpaceOnUse">
<stop offset="0.0036" stop-color="#DCACB1"/>
<stop offset="1" stop-color="#FFC444"/>
</linearGradient>
<linearGradient id="paint10_linear_5566_37872" x1="57.7812" y1="291.94" x2="115.454" y2="291.94" gradientUnits="userSpaceOnUse">
<stop stop-color="#AA80F9"/>
<stop offset="0.9964" stop-color="#6165D7"/>
</linearGradient>
<linearGradient id="paint11_linear_5566_37872" x1="87.3059" y1="218.261" x2="106.967" y2="206.394" gradientUnits="userSpaceOnUse">
<stop stop-color="#311944"/>
<stop offset="1" stop-color="#6B3976"/>
</linearGradient>
<linearGradient id="paint12_linear_5566_37872" x1="88.7259" y1="220.635" x2="108.408" y2="208.755" gradientUnits="userSpaceOnUse">
<stop stop-color="#311944"/>
<stop offset="1" stop-color="#6B3976"/>
</linearGradient>
<linearGradient id="paint13_linear_5566_37872" x1="101.207" y1="216.361" x2="103.293" y2="216.361" gradientUnits="userSpaceOnUse">
<stop offset="0.0036" stop-color="#F36F56"/>
<stop offset="1" stop-color="#FFC444"/>
</linearGradient>
<linearGradient id="paint14_linear_5566_37872" x1="73.3652" y1="277.553" x2="145.219" y2="277.553" gradientUnits="userSpaceOnUse">
<stop stop-color="#444B8C"/>
<stop offset="0.9964" stop-color="#26264F"/>
</linearGradient>
<linearGradient id="paint15_linear_5566_37872" x1="74.7207" y1="278.229" x2="145.284" y2="278.229" gradientUnits="userSpaceOnUse">
<stop stop-color="#444B8C"/>
<stop offset="0.9964" stop-color="#26264F"/>
</linearGradient>
<linearGradient id="paint16_linear_5566_37872" x1="74.7186" y1="279.043" x2="139.946" y2="279.043" gradientUnits="userSpaceOnUse">
<stop stop-color="#444B8C"/>
<stop offset="0.9964" stop-color="#26264F"/>
</linearGradient>
</defs>
</svg>
